<svg width="99" height="50" viewBox="0 0 99 50" fill="none" xmlns="http://www.w3.org/2000/svg">
<mask id="path-1-outside-1_2027_3417" maskUnits="userSpaceOnUse" x="0" y="0" width="99" height="50" fill="black">
<rect fill="white" width="99" height="50"/>
<path d="M29.856 18.568C29.296 21.7787 28.4 24.5973 27.168 27.024C25.936 29.4507 24.424 31.4853 22.632 33.128C20.8773 34.7333 18.88 35.9467 16.64 36.768C14.4 37.5893 12.0107 38 9.472 38C6.82133 38 4.88 37.4213 3.648 36.264C2.416 35.1067 1.8 33.6693 1.8 31.952C1.8 31.2053 1.912 30.4587 2.136 29.712C2.36 28.928 2.65867 28.2 3.032 27.528C3.44267 26.856 3.928 26.2587 4.488 25.736C5.08533 25.2133 5.72 24.784 6.392 24.448C6.616 24.448 6.74667 24.504 6.784 24.616C6.85867 24.728 6.85867 24.8587 6.784 25.008C5.81333 25.5307 5.06667 26.2773 4.544 27.248C4.02133 28.1813 3.76 29.2267 3.76 30.384C3.76 32.176 4.376 33.6507 5.608 34.808C6.87733 35.928 8.65067 36.488 10.928 36.488C13.2053 36.488 15.2213 36.208 16.976 35.648C18.768 35.0507 20.336 34.1173 21.68 32.848C23.024 31.5787 24.144 29.936 25.04 27.92C25.9733 25.8667 26.7013 23.384 27.224 20.472C27.7093 17.784 28.1947 15.544 28.68 13.752C29.2027 11.96 29.744 10.4853 30.304 9.328C30.864 8.13333 31.4613 7.21866 32.096 6.584C32.7307 5.94933 33.4213 5.42667 34.168 5.016C33.1973 4.64266 32.0587 4.344 30.752 4.12C29.4453 3.85866 28.0267 3.728 26.496 3.728C24.1813 3.728 22.1467 4.13866 20.392 4.96C18.6373 5.744 17.2 6.82667 16.08 8.208C14.9973 9.58933 14.2693 11.232 13.896 13.136C13.5227 15.0027 13.56 17.0187 14.008 19.184C14.008 19.3707 13.9333 19.5013 13.784 19.576C13.6347 19.6507 13.504 19.5947 13.392 19.408C12.8693 17.0933 12.832 14.8907 13.28 12.8C13.728 10.672 14.5867 8.80533 15.856 7.2C17.1627 5.59466 18.88 4.32533 21.008 3.392C23.136 2.42133 25.6373 1.936 28.512 1.936C30.08 1.936 31.592 2.104 33.048 2.44C34.504 2.776 35.8107 3.20533 36.968 3.728C37.1173 3.952 37.0987 4.15733 36.912 4.344C36.7627 4.49333 36.408 4.69867 35.848 4.96C35.064 5.296 34.3733 5.76267 33.776 6.36C33.216 6.95733 32.712 7.77867 32.264 8.824C31.816 9.86933 31.3867 11.1947 30.976 12.8C30.6027 14.368 30.2293 16.2907 29.856 18.568ZM33.44 17.392C34.2613 20.304 35.0827 22.936 35.904 25.288C36.7253 27.6027 37.6213 29.5813 38.592 31.224C39.5627 32.8293 40.664 34.0613 41.896 34.92C43.128 35.7787 44.5467 36.208 46.152 36.208C46.9733 36.208 47.72 36.0027 48.392 35.592C49.1013 35.144 49.6613 34.584 50.072 33.912C50.184 33.8 50.296 33.8 50.408 33.912C50.52 34.024 50.5573 34.1733 50.52 34.36C49.96 35.4053 49.176 36.2827 48.168 36.992C47.1973 37.664 45.984 38 44.528 38C42.8107 38 41.2987 37.496 39.992 36.488C38.6853 35.4427 37.528 34.0427 36.52 32.288C35.512 30.5333 34.616 28.4987 33.832 26.184C33.0853 23.8693 32.3947 21.4427 31.76 18.904C31.648 18.5307 31.7227 18.1573 31.984 17.784C33.664 15.6187 35.4 13.5653 37.192 11.624C39.0213 9.68267 40.832 8.00267 42.624 6.584C44.416 5.16533 46.152 4.04533 47.832 3.224C49.512 2.36533 51.0613 1.936 52.48 1.936C53.1147 1.936 53.656 2.17866 54.104 2.664C54.552 3.14933 54.776 3.784 54.776 4.568C54.776 5.09067 54.72 5.576 54.608 6.024C54.5333 6.43467 54.3653 6.93867 54.104 7.536C53.992 7.648 53.88 7.68533 53.768 7.648C53.656 7.61066 53.5813 7.51733 53.544 7.368C53.7307 6.472 53.6 5.70667 53.152 5.072C52.7413 4.4 51.92 4.064 50.688 4.064C49.6427 4.064 48.4293 4.4 47.048 5.072C45.6667 5.70667 44.2107 6.62133 42.68 7.816C41.1493 8.97333 39.5813 10.3733 37.976 12.016C36.408 13.6587 34.896 15.4507 33.44 17.392ZM97.4226 1.936C97.5346 2.01066 97.5533 2.12267 97.4786 2.272C97.4413 2.42133 97.348 2.58933 97.1986 2.776C97.0866 2.96267 96.9373 3.14933 96.7506 3.336C96.564 3.52267 96.396 3.65333 96.2466 3.728C95.4626 3.952 94.7346 4.288 94.0626 4.736C93.428 5.184 92.8306 5.83733 92.2706 6.696C91.7106 7.55467 91.1693 8.656 90.6466 10C90.1613 11.3067 89.676 12.9307 89.1906 14.872C88.556 17.336 87.8653 19.632 87.1186 21.76C86.372 23.888 85.5693 25.904 84.7106 27.808C85.1586 27.7333 85.588 27.6213 85.9986 27.472C86.4093 27.2853 86.7266 27.1173 86.9506 26.968C87.212 26.968 87.2866 27.0987 87.1746 27.36C86.5026 27.8453 85.6066 28.1813 84.4866 28.368C82.8813 31.8027 81.108 34.7707 79.1666 37.272C77.2253 39.7733 75.172 41.8453 73.0066 43.488C70.8413 45.1307 68.564 46.344 66.1746 47.128C63.8226 47.9493 61.4146 48.36 58.9506 48.36C56.3746 48.36 54.4706 47.744 53.2386 46.512C52.0066 45.3173 51.3906 43.824 51.3906 42.032C51.3906 40.6133 51.7826 39.1387 52.5666 37.608C53.3506 36.0773 54.4146 34.64 55.7586 33.296C57.14 31.952 58.764 30.776 60.6306 29.768C62.5346 28.76 64.6066 28.0507 66.8466 27.64C67.0333 27.64 67.1266 27.7147 67.1266 27.864C67.1266 28.0133 67.0333 28.1253 66.8466 28.2C64.868 28.5733 63.0573 29.1893 61.4146 30.048C59.772 30.8693 58.3533 31.84 57.1586 32.96C55.964 34.08 55.0306 35.2933 54.3586 36.6C53.6866 37.9067 53.3506 39.232 53.3506 40.576C53.3506 42.4427 53.9106 43.936 55.0306 45.056C56.188 46.2133 58.1293 46.792 60.8546 46.792C63.0573 46.792 65.1666 46.456 67.1826 45.784C69.236 45.112 71.1773 44.048 73.0066 42.592C74.836 41.136 76.5533 39.2507 78.1586 36.936C79.8013 34.6213 81.332 31.8213 82.7506 28.536C80.772 28.4613 79.1666 27.7707 77.9346 26.464C76.74 25.12 76.1426 23.328 76.1426 21.088C76.1426 18.7733 76.7026 16.4773 77.8226 14.2C78.9426 11.9227 80.4546 9.86933 82.3586 8.04C84.3 6.21066 86.5586 4.736 89.1346 3.616C91.748 2.496 94.5106 1.936 97.4226 1.936ZM86.8386 16.104C87.66 12.856 88.6493 10.2613 89.8066 8.32C90.964 6.37867 92.308 4.96 93.8386 4.064C91.2626 4.4 88.9293 5.128 86.8386 6.248C84.748 7.368 82.956 8.73067 81.4626 10.336C80.0066 11.904 78.868 13.6213 78.0466 15.488C77.2626 17.3173 76.8706 19.1093 76.8706 20.864C76.8706 23.0293 77.412 24.728 78.4946 25.96C79.5773 27.192 81.0706 27.864 82.9746 27.976C84.356 24.5787 85.644 20.6213 86.8386 16.104Z"/>
</mask>
<path d="M29.856 18.568C29.296 21.7787 28.4 24.5973 27.168 27.024C25.936 29.4507 24.424 31.4853 22.632 33.128C20.8773 34.7333 18.88 35.9467 16.64 36.768C14.4 37.5893 12.0107 38 9.472 38C6.82133 38 4.88 37.4213 3.648 36.264C2.416 35.1067 1.8 33.6693 1.8 31.952C1.8 31.2053 1.912 30.4587 2.136 29.712C2.36 28.928 2.65867 28.2 3.032 27.528C3.44267 26.856 3.928 26.2587 4.488 25.736C5.08533 25.2133 5.72 24.784 6.392 24.448C6.616 24.448 6.74667 24.504 6.784 24.616C6.85867 24.728 6.85867 24.8587 6.784 25.008C5.81333 25.5307 5.06667 26.2773 4.544 27.248C4.02133 28.1813 3.76 29.2267 3.76 30.384C3.76 32.176 4.376 33.6507 5.608 34.808C6.87733 35.928 8.65067 36.488 10.928 36.488C13.2053 36.488 15.2213 36.208 16.976 35.648C18.768 35.0507 20.336 34.1173 21.68 32.848C23.024 31.5787 24.144 29.936 25.04 27.92C25.9733 25.8667 26.7013 23.384 27.224 20.472C27.7093 17.784 28.1947 15.544 28.68 13.752C29.2027 11.96 29.744 10.4853 30.304 9.328C30.864 8.13333 31.4613 7.21866 32.096 6.584C32.7307 5.94933 33.4213 5.42667 34.168 5.016C33.1973 4.64266 32.0587 4.344 30.752 4.12C29.4453 3.85866 28.0267 3.728 26.496 3.728C24.1813 3.728 22.1467 4.13866 20.392 4.96C18.6373 5.744 17.2 6.82667 16.08 8.208C14.9973 9.58933 14.2693 11.232 13.896 13.136C13.5227 15.0027 13.56 17.0187 14.008 19.184C14.008 19.3707 13.9333 19.5013 13.784 19.576C13.6347 19.6507 13.504 19.5947 13.392 19.408C12.8693 17.0933 12.832 14.8907 13.28 12.8C13.728 10.672 14.5867 8.80533 15.856 7.2C17.1627 5.59466 18.88 4.32533 21.008 3.392C23.136 2.42133 25.6373 1.936 28.512 1.936C30.08 1.936 31.592 2.104 33.048 2.44C34.504 2.776 35.8107 3.20533 36.968 3.728C37.1173 3.952 37.0987 4.15733 36.912 4.344C36.7627 4.49333 36.408 4.69867 35.848 4.96C35.064 5.296 34.3733 5.76267 33.776 6.36C33.216 6.95733 32.712 7.77867 32.264 8.824C31.816 9.86933 31.3867 11.1947 30.976 12.8C30.6027 14.368 30.2293 16.2907 29.856 18.568ZM33.44 17.392C34.2613 20.304 35.0827 22.936 35.904 25.288C36.7253 27.6027 37.6213 29.5813 38.592 31.224C39.5627 32.8293 40.664 34.0613 41.896 34.92C43.128 35.7787 44.5467 36.208 46.152 36.208C46.9733 36.208 47.72 36.0027 48.392 35.592C49.1013 35.144 49.6613 34.584 50.072 33.912C50.184 33.8 50.296 33.8 50.408 33.912C50.52 34.024 50.5573 34.1733 50.52 34.36C49.96 35.4053 49.176 36.2827 48.168 36.992C47.1973 37.664 45.984 38 44.528 38C42.8107 38 41.2987 37.496 39.992 36.488C38.6853 35.4427 37.528 34.0427 36.52 32.288C35.512 30.5333 34.616 28.4987 33.832 26.184C33.0853 23.8693 32.3947 21.4427 31.76 18.904C31.648 18.5307 31.7227 18.1573 31.984 17.784C33.664 15.6187 35.4 13.5653 37.192 11.624C39.0213 9.68267 40.832 8.00267 42.624 6.584C44.416 5.16533 46.152 4.04533 47.832 3.224C49.512 2.36533 51.0613 1.936 52.48 1.936C53.1147 1.936 53.656 2.17866 54.104 2.664C54.552 3.14933 54.776 3.784 54.776 4.568C54.776 5.09067 54.72 5.576 54.608 6.024C54.5333 6.43467 54.3653 6.93867 54.104 7.536C53.992 7.648 53.88 7.68533 53.768 7.648C53.656 7.61066 53.5813 7.51733 53.544 7.368C53.7307 6.472 53.6 5.70667 53.152 5.072C52.7413 4.4 51.92 4.064 50.688 4.064C49.6427 4.064 48.4293 4.4 47.048 5.072C45.6667 5.70667 44.2107 6.62133 42.68 7.816C41.1493 8.97333 39.5813 10.3733 37.976 12.016C36.408 13.6587 34.896 15.4507 33.44 17.392ZM97.4226 1.936C97.5346 2.01066 97.5533 2.12267 97.4786 2.272C97.4413 2.42133 97.348 2.58933 97.1986 2.776C97.0866 2.96267 96.9373 3.14933 96.7506 3.336C96.564 3.52267 96.396 3.65333 96.2466 3.728C95.4626 3.952 94.7346 4.288 94.0626 4.736C93.428 5.184 92.8306 5.83733 92.2706 6.696C91.7106 7.55467 91.1693 8.656 90.6466 10C90.1613 11.3067 89.676 12.9307 89.1906 14.872C88.556 17.336 87.8653 19.632 87.1186 21.76C86.372 23.888 85.5693 25.904 84.7106 27.808C85.1586 27.7333 85.588 27.6213 85.9986 27.472C86.4093 27.2853 86.7266 27.1173 86.9506 26.968C87.212 26.968 87.2866 27.0987 87.1746 27.36C86.5026 27.8453 85.6066 28.1813 84.4866 28.368C82.8813 31.8027 81.108 34.7707 79.1666 37.272C77.2253 39.7733 75.172 41.8453 73.0066 43.488C70.8413 45.1307 68.564 46.344 66.1746 47.128C63.8226 47.9493 61.4146 48.36 58.9506 48.36C56.3746 48.36 54.4706 47.744 53.2386 46.512C52.0066 45.3173 51.3906 43.824 51.3906 42.032C51.3906 40.6133 51.7826 39.1387 52.5666 37.608C53.3506 36.0773 54.4146 34.64 55.7586 33.296C57.14 31.952 58.764 30.776 60.6306 29.768C62.5346 28.76 64.6066 28.0507 66.8466 27.64C67.0333 27.64 67.1266 27.7147 67.1266 27.864C67.1266 28.0133 67.0333 28.1253 66.8466 28.2C64.868 28.5733 63.0573 29.1893 61.4146 30.048C59.772 30.8693 58.3533 31.84 57.1586 32.96C55.964 34.08 55.0306 35.2933 54.3586 36.6C53.6866 37.9067 53.3506 39.232 53.3506 40.576C53.3506 42.4427 53.9106 43.936 55.0306 45.056C56.188 46.2133 58.1293 46.792 60.8546 46.792C63.0573 46.792 65.1666 46.456 67.1826 45.784C69.236 45.112 71.1773 44.048 73.0066 42.592C74.836 41.136 76.5533 39.2507 78.1586 36.936C79.8013 34.6213 81.332 31.8213 82.7506 28.536C80.772 28.4613 79.1666 27.7707 77.9346 26.464C76.74 25.12 76.1426 23.328 76.1426 21.088C76.1426 18.7733 76.7026 16.4773 77.8226 14.2C78.9426 11.9227 80.4546 9.86933 82.3586 8.04C84.3 6.21066 86.5586 4.736 89.1346 3.616C91.748 2.496 94.5106 1.936 97.4226 1.936ZM86.8386 16.104C87.66 12.856 88.6493 10.2613 89.8066 8.32C90.964 6.37867 92.308 4.96 93.8386 4.064C91.2626 4.4 88.9293 5.128 86.8386 6.248C84.748 7.368 82.956 8.73067 81.4626 10.336C80.0066 11.904 78.868 13.6213 78.0466 15.488C77.2626 17.3173 76.8706 19.1093 76.8706 20.864C76.8706 23.0293 77.412 24.728 78.4946 25.96C79.5773 27.192 81.0706 27.864 82.9746 27.976C84.356 24.5787 85.644 20.6213 86.8386 16.104Z" fill="#F4F6F9"/>
<path d="M29.856 18.568L30.8412 18.7398L30.8428 18.7298L29.856 18.568ZM27.168 27.024L28.0597 27.4767L27.168 27.024ZM22.632 33.128L23.307 33.8658L23.3077 33.8652L22.632 33.128ZM16.64 36.768L16.2957 35.8291L16.64 36.768ZM3.648 36.264L4.33268 35.5352L4.33268 35.5352L3.648 36.264ZM2.136 29.712L3.09391 29.9994L3.09752 29.9867L2.136 29.712ZM3.032 27.528L2.17872 27.0065L2.16791 27.0242L2.15784 27.0424L3.032 27.528ZM4.488 25.736L3.8295 24.9834L3.81742 24.994L3.80568 25.0049L4.488 25.736ZM6.392 24.448V23.448H6.15593L5.94479 23.5536L6.392 24.448ZM6.784 24.616L5.83532 24.9322L5.87767 25.0593L5.95195 25.1707L6.784 24.616ZM6.784 25.008L7.2581 25.8885L7.53685 25.7384L7.67843 25.4552L6.784 25.008ZM4.544 27.248L5.41651 27.7366L5.42055 27.7294L5.42447 27.7221L4.544 27.248ZM5.608 34.808L4.92333 35.5368L4.93469 35.5475L4.94638 35.5578L5.608 34.808ZM16.976 35.648L17.2801 36.6007L17.2922 36.5967L16.976 35.648ZM21.68 32.848L22.3666 33.575L22.3666 33.575L21.68 32.848ZM25.04 27.92L24.1296 27.5062L24.1262 27.5139L25.04 27.92ZM27.224 20.472L26.2399 20.2943L26.2397 20.2953L27.224 20.472ZM28.68 13.752L27.72 13.472L27.7173 13.4813L27.7148 13.4906L28.68 13.752ZM30.304 9.328L31.2042 9.76359L31.2095 9.75243L30.304 9.328ZM32.096 6.584L31.3889 5.87689L31.3889 5.87689L32.096 6.584ZM34.168 5.016L34.6499 5.89221L36.5355 4.85515L34.527 4.08265L34.168 5.016ZM30.752 4.12L30.5559 5.10058L30.5694 5.10329L30.583 5.10562L30.752 4.12ZM20.392 4.96L20.7999 5.87301L20.808 5.86942L20.8159 5.86569L20.392 4.96ZM16.08 8.208L15.3032 7.5782L15.298 7.58462L15.2929 7.59112L16.08 8.208ZM13.896 13.136L14.8766 13.3321L14.8773 13.3284L13.896 13.136ZM14.008 19.184H15.008V19.0816L14.9873 18.9814L14.008 19.184ZM13.784 19.576L13.3368 18.6816L13.3368 18.6816L13.784 19.576ZM13.392 19.408L12.4166 19.6283L12.4519 19.7848L12.5345 19.9225L13.392 19.408ZM13.28 12.8L14.2578 13.0095L14.2586 13.006L13.28 12.8ZM15.856 7.2L15.0804 6.56873L15.076 6.57421L15.0716 6.57976L15.856 7.2ZM21.008 3.392L21.4097 4.30779L21.4164 4.30485L21.423 4.30182L21.008 3.392ZM33.048 2.44L33.2729 1.46561L33.2729 1.46561L33.048 2.44ZM36.968 3.728L37.8001 3.1733L37.641 2.93467L37.3796 2.81663L36.968 3.728ZM35.848 4.96L36.2419 5.87914L36.2565 5.87289L36.2709 5.86618L35.848 4.96ZM33.776 6.36L33.0689 5.65289L33.0575 5.6643L33.0465 5.67606L33.776 6.36ZM32.264 8.824L33.1831 9.21792L33.1831 9.21792L32.264 8.824ZM30.976 12.8L30.0072 12.5522L30.0051 12.5603L30.0032 12.5684L30.976 12.8ZM33.44 17.392L32.64 16.792L32.3433 17.1876L32.4776 17.6635L33.44 17.392ZM35.904 25.288L34.9599 25.6177L34.9616 25.6224L35.904 25.288ZM38.592 31.224L37.731 31.7328L37.7363 31.7414L38.592 31.224ZM41.896 34.92L42.4678 34.0996L42.4678 34.0996L41.896 34.92ZM48.392 35.592L48.9135 36.4453L48.9198 36.4414L48.926 36.4375L48.392 35.592ZM50.072 33.912L49.3649 33.2049L49.2808 33.289L49.2187 33.3905L50.072 33.912ZM50.408 33.912L51.1151 33.2049L51.1151 33.2049L50.408 33.912ZM50.52 34.36L51.4015 34.8322L51.4715 34.7015L51.5006 34.5561L50.52 34.36ZM48.168 36.992L48.7372 37.8142L48.7435 37.8098L48.168 36.992ZM39.992 36.488L39.3673 37.2689L39.3742 37.2744L39.3812 37.2798L39.992 36.488ZM36.52 32.288L37.3871 31.7899L37.3871 31.7899L36.52 32.288ZM33.832 26.184L32.8803 26.491L32.8825 26.4979L32.8849 26.5048L33.832 26.184ZM31.76 18.904L32.7301 18.6615L32.7245 18.6389L32.7178 18.6166L31.76 18.904ZM31.984 17.784L31.1939 17.171L31.1789 17.1904L31.1648 17.2105L31.984 17.784ZM37.192 11.624L36.4642 10.9382L36.4572 10.9457L37.192 11.624ZM42.624 6.584L42.0033 5.79995L42.0033 5.79995L42.624 6.584ZM47.832 3.224L48.2712 4.12238L48.2792 4.11848L48.2871 4.11443L47.832 3.224ZM54.104 2.664L53.3692 3.34228L53.3692 3.34228L54.104 2.664ZM54.608 6.024L53.6379 5.78146L53.63 5.81306L53.6241 5.84512L54.608 6.024ZM54.104 7.536L54.8111 8.2431L54.9445 8.10968L55.0202 7.93682L54.104 7.536ZM53.768 7.648L54.0842 6.69932L54.0842 6.69931L53.768 7.648ZM53.544 7.368L52.565 7.16404L52.5183 7.3883L52.5739 7.61053L53.544 7.368ZM53.152 5.072L52.2987 5.59345L52.316 5.62167L52.335 5.64868L53.152 5.072ZM47.048 5.072L47.4655 5.98068L47.4755 5.97607L47.4855 5.97124L47.048 5.072ZM42.68 7.816L43.2831 8.61366L43.2892 8.60903L43.2953 8.60431L42.68 7.816ZM37.976 12.016L37.2608 11.317L37.2526 11.3255L37.976 12.016ZM28.8709 18.3962C28.3247 21.5278 27.4556 24.2486 26.2763 26.5713L28.0597 27.4767C29.3444 24.9461 30.2673 22.0296 30.8411 18.7398L28.8709 18.3962ZM26.2763 26.5713C25.0922 28.9037 23.6499 30.8384 21.9563 32.3908L23.3077 33.8652C25.1981 32.1323 26.7798 29.9977 28.0597 27.4767L26.2763 26.5713ZM21.957 32.3902C20.2987 33.9073 18.4139 35.0525 16.2957 35.8291L16.9843 37.7069C19.3462 36.8408 21.4559 35.5594 23.307 33.8658L21.957 32.3902ZM16.2957 35.8291C14.1729 36.6075 11.9008 37 9.472 37V39C12.1205 39 14.6271 38.5712 16.9843 37.7069L16.2957 35.8291ZM9.472 37C6.93676 37 5.2981 36.4421 4.33268 35.5352L2.96332 36.9928C4.4619 38.4006 6.70591 39 9.472 39V37ZM4.33268 35.5352C3.3055 34.5702 2.8 33.3983 2.8 31.952H0.8C0.8 33.9404 1.52651 35.6431 2.96332 36.9928L4.33268 35.5352ZM2.8 31.952C2.8 31.3069 2.89655 30.6569 3.09383 29.9993L1.17817 29.4247C0.927445 30.2604 0.8 31.1038 0.8 31.952H2.8ZM3.09752 29.9867C3.30181 29.2717 3.57207 28.615 3.90616 28.0136L2.15784 27.0424C1.74526 27.785 1.41819 28.5843 1.17448 29.4373L3.09752 29.9867ZM3.88528 28.0494C4.25005 27.4526 4.67838 26.9262 5.17032 26.4671L3.80568 25.0049C3.17762 25.5911 2.63528 26.2594 2.17872 27.0065L3.88528 28.0494ZM5.1465 26.4886C5.68335 26.0188 6.24757 25.6382 6.83921 25.3424L5.94479 23.5536C5.19243 23.9298 4.48732 24.4078 3.8295 24.9834L5.1465 26.4886ZM6.392 25.448C6.43792 25.448 6.37415 25.4563 6.26408 25.4091C6.2023 25.3827 6.11617 25.3344 6.03139 25.2496C5.94333 25.1615 5.87539 25.0525 5.83532 24.9322L7.73268 24.2998C7.60537 23.9178 7.32138 23.6863 7.05192 23.5709C6.81118 23.4677 6.57008 23.448 6.392 23.448V25.448ZM5.95195 25.1707C5.88327 25.0677 5.84 24.9363 5.84 24.798C5.84 24.6711 5.87618 24.5876 5.88957 24.5608L7.67843 25.4552C7.86844 25.0752 7.94006 24.5473 7.61605 24.0613L5.95195 25.1707ZM6.3099 24.1275C5.16693 24.743 4.27897 25.6309 3.66353 26.7739L5.42447 27.7221C5.85436 26.9237 6.45973 26.3184 7.2581 25.8885L6.3099 24.1275ZM3.67149 26.7594C3.05846 27.8541 2.76 29.07 2.76 30.384H4.76C4.76 29.3833 4.98421 28.5086 5.41651 27.7366L3.67149 26.7594ZM2.76 30.384C2.76 32.4334 3.47694 34.1781 4.92333 35.5368L6.29268 34.0792C5.27506 33.1232 4.76 31.9186 4.76 30.384H2.76ZM4.94638 35.5578C6.45345 36.8876 8.49207 37.488 10.928 37.488V35.488C8.80926 35.488 7.30122 34.9684 6.26962 34.0582L4.94638 35.5578ZM10.928 37.488C13.2851 37.488 15.407 37.1984 17.28 36.6007L16.672 34.6953C15.0356 35.2176 13.1255 35.488 10.928 35.488V37.488ZM17.2922 36.5967C19.2193 35.9543 20.9144 34.9465 22.3666 33.575L20.9934 32.121C19.7576 33.2881 18.3167 34.147 16.6598 34.6993L17.2922 36.5967ZM22.3666 33.575C23.8235 32.199 25.0143 30.4401 25.9538 28.3261L24.1262 27.5139C23.2737 29.4319 22.2245 30.9583 20.9934 32.121L22.3666 33.575ZM25.9504 28.3338C26.9268 26.1856 27.6752 23.6187 28.2083 20.6487L26.2397 20.2953C25.7275 23.1493 25.0198 25.5478 24.1296 27.5062L25.9504 28.3338ZM28.2081 20.6497C28.6905 17.9781 29.17 15.7682 29.6452 14.0134L27.7148 13.4906C27.2194 15.3198 26.7282 17.5899 26.2399 20.2943L28.2081 20.6497ZM29.64 14.032C30.1534 12.2718 30.6766 10.8539 31.2042 9.76356L29.4038 8.89244C28.8114 10.1167 28.2519 11.6482 27.72 13.472L29.64 14.032ZM31.2095 9.75243C31.7412 8.61803 32.2793 7.81489 32.8031 7.2911L31.3889 5.87689C30.6433 6.62244 29.9868 7.64863 29.3985 8.90357L31.2095 9.75243ZM32.8031 7.29111C33.3746 6.71959 33.9902 6.25505 34.6499 5.89221L33.6861 4.13978C32.8525 4.59828 32.0867 5.17908 31.3889 5.87689L32.8031 7.29111ZM34.527 4.08265C33.4808 3.68027 32.2758 3.36663 30.921 3.13438L30.583 5.10562C31.8415 5.32136 32.9139 5.60505 33.809 5.94934L34.527 4.08265ZM30.9481 3.13942C29.5682 2.86343 28.083 2.728 26.496 2.728V4.728C27.9703 4.728 29.3225 4.8539 30.5559 5.10058L30.9481 3.13942ZM26.496 2.728C24.063 2.728 21.8788 3.15994 19.9681 4.05431L20.8159 5.86569C22.4146 5.11739 24.2997 4.728 26.496 4.728V2.728ZM19.9841 4.04699C18.0977 4.88982 16.5301 6.06511 15.3032 7.5782L16.8568 8.8378C17.8699 7.58822 19.1769 6.59818 20.7999 5.87301L19.9841 4.04699ZM15.2929 7.59112C14.103 9.10929 13.3151 10.9013 12.9147 12.9436L14.8773 13.3284C15.2235 11.5627 15.8916 10.0694 16.8671 8.82488L15.2929 7.59112ZM12.9154 12.9399C12.5119 14.9577 12.5579 17.1108 13.0287 19.3866L14.9873 18.9814C14.5621 16.9265 14.5335 15.0476 14.8766 13.3321L12.9154 12.9399ZM13.008 19.184C13.008 19.1447 13.0163 19.0439 13.0838 18.9259C13.1549 18.8013 13.2549 18.7225 13.3368 18.6816L14.2312 20.4704C14.4624 20.3548 14.6744 20.1734 14.8202 19.9181C14.9624 19.6694 15.008 19.41 15.008 19.184H13.008ZM13.3368 18.6816C13.4744 18.6128 13.7147 18.5623 13.9679 18.6709C14.0737 18.7162 14.1451 18.7749 14.1866 18.8164C14.2271 18.8569 14.2461 18.8878 14.2495 18.8935L12.5345 19.9225C12.6447 20.1062 12.8435 20.3649 13.1801 20.5091C13.564 20.6737 13.9443 20.6139 14.2312 20.4704L13.3368 18.6816ZM14.3674 19.1877C13.8732 16.9988 13.8434 14.9436 14.2578 13.0095L12.3022 12.5905C11.8206 14.8378 11.8655 17.1878 12.4166 19.6283L14.3674 19.1877ZM14.2586 13.006C14.6768 11.0195 15.4729 9.2968 16.6404 7.82024L15.0716 6.57976C13.7004 8.31386 12.7792 10.3245 12.3015 12.594L14.2586 13.006ZM16.6316 7.83127C17.8262 6.36354 19.4091 5.18523 21.4097 4.30779L20.6063 2.47621C18.3509 3.46543 16.4991 4.82578 15.0804 6.56873L16.6316 7.83127ZM21.423 4.30182C23.3944 3.40257 25.7485 2.936 28.512 2.936V0.935997C25.5262 0.935997 22.8776 1.44009 20.593 2.48218L21.423 4.30182ZM28.512 2.936C30.008 2.936 31.4444 3.09622 32.8231 3.41439L33.2729 1.46561C31.7396 1.11177 30.152 0.935997 28.512 0.935997V2.936ZM32.8231 3.41439C34.2259 3.7381 35.4685 4.14806 36.5564 4.63937L37.3796 2.81663C36.1528 2.2626 34.7821 1.81389 33.2729 1.46561L32.8231 3.41439ZM36.136 4.2827C36.123 4.26329 36.0532 4.14575 36.0701 3.95946C36.0873 3.77021 36.1801 3.66165 36.2049 3.63689L37.6191 5.05111C37.8305 4.83968 38.026 4.53512 38.0619 4.14053C38.0975 3.74892 37.9623 3.4167 37.8001 3.1733L36.136 4.2827ZM36.2049 3.63689C36.2252 3.61659 36.1915 3.65277 36.033 3.74457C35.8903 3.82714 35.6904 3.93003 35.4251 4.05381L36.2709 5.86618C36.5656 5.72864 36.823 5.59819 37.035 5.47543C37.2311 5.3619 37.4495 5.22074 37.6191 5.05111L36.2049 3.63689ZM35.4541 4.04085C34.5543 4.42647 33.7571 4.96471 33.0689 5.65289L34.4831 7.06711C34.9896 6.56062 35.5737 6.16553 36.2419 5.87914L35.4541 4.04085ZM33.0465 5.67606C32.3825 6.38427 31.8222 7.3163 31.3449 8.43008L33.1831 9.21792C33.6018 8.24103 34.0495 7.53039 34.5055 7.04394L33.0465 5.67606ZM31.3449 8.43008C30.8697 9.5388 30.4254 10.9173 30.0072 12.5522L31.9448 13.0478C32.3479 11.472 32.7623 10.1999 33.1831 9.21792L31.3449 8.43008ZM30.0032 12.5684C29.6226 14.167 29.2449 16.1145 28.8692 18.4062L30.8428 18.7298C31.2138 16.4668 31.5828 14.569 31.9488 13.0316L30.0032 12.5684ZM32.4776 17.6635C33.3033 20.5911 34.1306 23.2429 34.9599 25.6177L36.8481 24.9583C36.0347 22.6291 35.2194 20.0169 34.4025 17.1205L32.4776 17.6635ZM34.9616 25.6224C35.7986 27.9814 36.7199 30.0216 37.7311 31.7327L39.4529 30.7153C38.5227 29.1411 37.652 27.224 36.8464 24.9536L34.9616 25.6224ZM37.7363 31.7414C38.7618 33.4376 39.9526 34.7844 41.3242 35.7404L42.4678 34.0996C41.3754 33.3383 40.3635 32.2211 39.4477 30.7066L37.7363 31.7414ZM41.3242 35.7404C42.7358 36.7242 44.3571 37.208 46.152 37.208V35.208C44.7363 35.208 43.5202 34.8331 42.4678 34.0996L41.3242 35.7404ZM46.152 37.208C47.1491 37.208 48.0775 36.9561 48.9135 36.4453L47.8706 34.7387C47.3625 35.0492 46.7976 35.208 46.152 35.208V37.208ZM48.926 36.4375C49.7566 35.9129 50.4293 35.245 50.9253 34.4335L49.2187 33.3905C48.8934 33.923 48.4461 34.3751 47.858 34.7465L48.926 36.4375ZM50.7791 34.6191C50.7261 34.6721 50.5428 34.828 50.24 34.828C49.9372 34.828 49.7539 34.6721 49.7009 34.6191L51.1151 33.2049C50.9501 33.0399 50.6548 32.828 50.24 32.828C49.8252 32.828 49.5299 33.0399 49.3649 33.2049L50.7791 34.6191ZM49.7009 34.6191C49.6326 34.5508 49.5765 34.457 49.5499 34.3505C49.5251 34.2517 49.5358 34.1822 49.5394 34.1639L51.5006 34.5561C51.5883 34.1176 51.5135 33.6033 51.1151 33.2049L49.7009 34.6191ZM49.6385 33.8878C49.1551 34.7902 48.4781 35.551 47.5925 36.1742L48.7435 37.8098C49.8739 37.0144 50.7649 36.0205 51.4015 34.8322L49.6385 33.8878ZM47.5988 36.1698C46.8309 36.7015 45.8285 37 44.528 37V39C46.1395 39 47.5638 38.6265 48.7372 37.8142L47.5988 36.1698ZM44.528 37C43.022 37 41.727 36.5634 40.6028 35.6962L39.3812 37.2798C40.8704 38.4286 42.5993 39 44.528 39V37ZM40.6167 35.7071C39.4259 34.7545 38.3454 33.4581 37.3871 31.7899L35.6529 32.7861C36.7106 34.6273 37.9447 36.1308 39.3673 37.2689L40.6167 35.7071ZM37.3871 31.7899C36.4173 30.1018 35.5464 28.1285 34.7791 25.8632L32.8849 26.5048C33.6856 28.8688 34.6067 30.9649 35.6529 32.7861L37.3871 31.7899ZM34.7837 25.877C34.0444 23.5851 33.3598 21.1801 32.7301 18.6615L30.7899 19.1465C31.4295 21.7053 32.1263 24.1535 32.8803 26.491L34.7837 25.877ZM32.7178 18.6166C32.7092 18.5878 32.684 18.5278 32.8032 18.3575L31.1648 17.2105C30.7613 17.7869 30.5868 18.4735 30.8022 19.1913L32.7178 18.6166ZM32.7741 18.397C34.4372 16.2534 36.1549 14.2219 37.9268 12.3023L36.4572 10.9457C34.6451 12.9088 32.8908 14.984 31.1939 17.171L32.7741 18.397ZM37.9198 12.3098C39.7212 10.3981 41.4964 8.75212 43.2447 7.36804L42.0033 5.79995C40.1676 7.25321 38.3215 8.96724 36.4642 10.9382L37.9198 12.3098ZM43.2447 7.36804C44.9924 5.98446 46.668 4.90618 48.2712 4.12238L47.3928 2.32561C45.636 3.18448 43.8396 4.3462 42.0033 5.79995L43.2447 7.36804ZM48.2871 4.11443C49.8708 3.30501 51.263 2.936 52.48 2.936V0.935997C50.8597 0.935997 49.1532 1.42565 47.3769 2.33356L48.2871 4.11443ZM52.48 2.936C52.823 2.936 53.1018 3.0526 53.3692 3.34228L54.8388 1.98572C54.2102 1.30473 53.4063 0.935997 52.48 0.935997V2.936ZM53.3692 3.34228C53.6156 3.60924 53.776 3.98551 53.776 4.568H55.776C55.776 3.58248 55.4884 2.68942 54.8388 1.98572L53.3692 3.34228ZM53.776 4.568C53.776 5.01945 53.7276 5.4224 53.6379 5.78146L55.5781 6.26654C55.7124 5.7296 55.776 5.16189 55.776 4.568H53.776ZM53.6241 5.84512C53.5688 6.1493 53.4334 6.57399 53.1878 7.13518L55.0202 7.93682C55.2973 7.30334 55.4978 6.72003 55.5919 6.20288L53.6241 5.84512ZM53.3969 6.8289C53.4149 6.8109 53.487 6.74357 53.6198 6.69931C53.7691 6.64956 53.935 6.64956 54.0842 6.69932L53.4518 8.59668C54.0469 8.79507 54.5381 8.51616 54.8111 8.2431L53.3969 6.8289ZM54.0842 6.69931C54.2135 6.7424 54.3274 6.82343 54.4089 6.9253C54.4833 7.01834 54.5076 7.09924 54.5141 7.12546L52.5739 7.61053C52.6657 7.97799 52.9181 8.41879 53.4518 8.59668L54.0842 6.69931ZM54.523 7.57195C54.7552 6.45716 54.6054 5.39696 53.969 4.49532L52.335 5.64868C52.5946 6.01638 52.7061 6.48683 52.565 7.16404L54.523 7.57195ZM54.0053 4.55055C53.326 3.43902 52.0606 3.064 50.688 3.064V5.064C51.7794 5.064 52.1567 5.36097 52.2987 5.59345L54.0053 4.55055ZM50.688 3.064C49.4369 3.064 48.0692 3.46313 46.6105 4.17276L47.4855 5.97124C48.7894 5.33687 49.8484 5.064 50.688 5.064V3.064ZM46.6305 4.16332C45.1626 4.83778 43.6405 5.79781 42.0647 7.02768L43.2953 8.60431C44.7808 7.44486 46.1708 6.57555 47.4655 5.98068L46.6305 4.16332ZM42.0769 7.01834C40.4996 8.21091 38.8944 9.64545 37.2608 11.3171L38.6912 12.7149C40.2682 11.1012 41.799 9.73575 43.2831 8.61366L42.0769 7.01834ZM37.2526 11.3255C35.6555 12.9987 34.1181 14.8212 32.64 16.792L34.24 17.992C35.6739 16.0802 37.1605 14.3187 38.6994 12.7065L37.2526 11.3255ZM97.4226 1.936L97.9773 1.10395L97.7254 0.935997H97.4226V1.936ZM97.4786 2.272L96.5842 1.82478L96.5351 1.92297L96.5085 2.02947L97.4786 2.272ZM97.1986 2.776L96.4178 2.1513L96.3757 2.20383L96.3411 2.26151L97.1986 2.776ZM96.2466 3.728L96.5214 4.68952L96.6107 4.66399L96.6938 4.62243L96.2466 3.728ZM94.0626 4.736L93.5079 3.90395L93.4968 3.91134L93.4859 3.91903L94.0626 4.736ZM92.2706 6.696L91.433 6.14973L91.433 6.14973L92.2706 6.696ZM90.6466 10L89.7146 9.63755L89.7119 9.64466L89.7092 9.65181L90.6466 10ZM89.1906 14.872L90.159 15.1214L90.1608 15.1145L89.1906 14.872ZM87.1186 21.76L86.175 21.4289L86.175 21.4289L87.1186 21.76ZM84.7106 27.808L83.799 27.3969L83.0301 29.1019L84.875 28.7944L84.7106 27.808ZM85.9986 27.472L86.3404 28.4118L86.377 28.3985L86.4124 28.3824L85.9986 27.472ZM86.9506 26.968V25.968H86.6479L86.3959 26.1359L86.9506 26.968ZM87.1746 27.36L87.7601 28.1707L87.9847 28.0085L88.0938 27.7539L87.1746 27.36ZM84.4866 28.368L84.3222 27.3816L83.8034 27.4681L83.5807 27.9446L84.4866 28.368ZM79.1666 37.272L78.3766 36.6589L78.3766 36.6589L79.1666 37.272ZM73.0066 43.488L72.4022 42.6913L72.4022 42.6913L73.0066 43.488ZM66.1746 47.128L65.8629 46.1778L65.8539 46.1808L65.8449 46.1839L66.1746 47.128ZM53.2386 46.512L53.9457 45.8049L53.9403 45.7995L53.9348 45.7941L53.2386 46.512ZM52.5666 37.608L51.6766 37.1521L52.5666 37.608ZM55.7586 33.296L55.0612 32.5792L55.0515 32.5889L55.7586 33.296ZM60.6306 29.768L60.1627 28.8842L60.1555 28.8881L60.6306 29.768ZM66.8466 27.64V26.64H66.7557L66.6663 26.6564L66.8466 27.64ZM66.8466 28.2L67.032 29.1827L67.1277 29.1646L67.218 29.1285L66.8466 28.2ZM61.4146 30.048L61.8618 30.9424L61.8699 30.9384L61.8779 30.9342L61.4146 30.048ZM57.1586 32.96L57.8426 33.6895L57.8426 33.6895L57.1586 32.96ZM54.3586 36.6L55.2479 37.0573L55.2479 37.0573L54.3586 36.6ZM55.0306 45.056L55.7377 44.3489L55.7377 44.3489L55.0306 45.056ZM67.1826 45.784L66.8716 44.8336L66.8664 44.8353L67.1826 45.784ZM73.0066 42.592L72.3839 41.8096L72.3839 41.8096L73.0066 42.592ZM78.1586 36.936L77.3431 36.3572L77.3369 36.3661L78.1586 36.936ZM82.7506 28.536L83.6687 28.9324L84.2476 27.5918L82.7883 27.5367L82.7506 28.536ZM77.9346 26.464L77.1872 27.1284L77.197 27.1393L77.207 27.15L77.9346 26.464ZM77.8226 14.2L78.72 14.6413L78.72 14.6413L77.8226 14.2ZM82.3586 8.04L81.6728 7.31218L81.6658 7.31889L82.3586 8.04ZM89.1346 3.616L88.7407 2.69684L88.7359 2.69893L89.1346 3.616ZM86.8386 16.104L87.8054 16.3597L87.8081 16.3492L86.8386 16.104ZM89.8066 8.32L90.6656 8.83206L90.6656 8.83206L89.8066 8.32ZM93.8386 4.064L94.3438 4.92701L93.7093 3.0724L93.8386 4.064ZM86.8386 6.248L86.3664 5.36652L86.3664 5.36652L86.8386 6.248ZM81.4626 10.336L80.7304 9.65489L80.7298 9.65555L81.4626 10.336ZM78.0466 15.488L77.1313 15.0852L77.1275 15.0941L78.0466 15.488ZM78.4946 25.96L79.2458 25.2999L79.2458 25.2999L78.4946 25.96ZM82.9746 27.976L82.9159 28.9743L83.6311 29.0163L83.901 28.3526L82.9746 27.976ZM96.8679 2.76804C96.7403 2.68293 96.5787 2.50748 96.5342 2.24039C96.4959 2.01058 96.5695 1.85427 96.5842 1.82478L98.3731 2.71922C98.4625 2.5404 98.564 2.25342 98.507 1.9116C98.4438 1.53252 98.217 1.26373 97.9773 1.10395L96.8679 2.76804ZM96.5085 2.02947C96.5155 2.00129 96.5207 1.99877 96.5065 2.02436C96.4926 2.04938 96.4655 2.09157 96.4178 2.1513L97.9795 3.4007C98.174 3.1575 98.3626 2.85913 98.4488 2.51453L96.5085 2.02947ZM96.3411 2.26151C96.279 2.36509 96.1842 2.48826 96.0435 2.62889L97.4577 4.04311C97.6904 3.8104 97.8943 3.56024 98.0561 3.29049L96.3411 2.26151ZM96.0435 2.62889C95.8941 2.77836 95.8135 2.82654 95.7994 2.83357L96.6938 4.62243C96.9785 4.48012 97.2339 4.26698 97.4577 4.04311L96.0435 2.62889ZM95.9719 2.76647C95.0894 3.01862 94.2668 3.39801 93.5079 3.90395L94.6173 5.56805C95.2024 5.17798 95.8358 4.88538 96.5214 4.68952L95.9719 2.76647ZM93.4859 3.91903C92.7207 4.45917 92.0412 5.21719 91.433 6.14973L93.1082 7.24227C93.6201 6.45748 94.1352 5.90882 94.6393 5.55296L93.4859 3.91903ZM91.433 6.14973C90.8235 7.08429 90.2531 8.25296 89.7146 9.63755L91.5786 10.3624C92.0855 9.05903 92.5977 8.02504 93.1082 7.24227L91.433 6.14973ZM89.7092 9.65181C89.2068 11.0044 88.7113 12.6663 88.2205 14.6295L90.1608 15.1145C90.6406 13.195 91.1158 11.609 91.5841 10.3482L89.7092 9.65181ZM88.2222 14.6226C87.5938 17.0624 86.9112 19.3309 86.175 21.4289L88.0622 22.0911C88.8194 19.9331 89.5181 17.6096 90.159 15.1214L88.2222 14.6226ZM86.175 21.4289C85.4371 23.5319 84.645 25.5211 83.799 27.3969L85.6222 28.2191C86.4936 26.2869 87.3068 24.2441 88.0622 22.0911L86.175 21.4289ZM84.875 28.7944C85.3811 28.7101 85.8699 28.5829 86.3404 28.4118L85.6569 26.5322C85.306 26.6598 84.9362 26.7566 84.5462 26.8216L84.875 28.7944ZM86.4124 28.3824C86.8441 28.1862 87.2167 27.9925 87.5053 27.8001L86.3959 26.1359C86.2366 26.2422 85.9745 26.3845 85.5848 26.5616L86.4124 28.3824ZM86.9506 27.968C86.943 27.968 86.8623 27.9685 86.7492 27.9245C86.6215 27.8749 86.4507 27.7658 86.3344 27.5621C86.2233 27.3677 86.2192 27.1872 86.2281 27.0937C86.2366 27.005 86.2592 26.9575 86.2555 26.9661L88.0938 27.7539C88.1708 27.5741 88.3586 27.0734 88.0709 26.5699C87.7533 26.014 87.1704 25.968 86.9506 25.968V27.968ZM86.5891 26.5493C86.0795 26.9174 85.3434 27.2114 84.3222 27.3816L84.651 29.3544C85.8698 29.1513 86.9258 28.7733 87.7601 28.1707L86.5891 26.5493ZM83.5807 27.9446C82.0009 31.3247 80.2645 34.2264 78.3766 36.6589L79.9566 37.8851C81.9514 35.3149 83.7617 32.2807 85.3926 28.7914L83.5807 27.9446ZM78.3766 36.6589C76.4803 39.1022 74.4876 41.1093 72.4022 42.6913L73.611 44.2847C75.8563 42.5814 77.9703 40.4444 79.9566 37.8851L78.3766 36.6589ZM72.4022 42.6913C70.3181 44.2724 68.1386 45.4311 65.8629 46.1778L66.4864 48.0782C68.9893 47.2569 71.3645 45.989 73.611 44.2847L72.4022 42.6913ZM65.8449 46.1839C63.5977 46.9687 61.3011 47.36 58.9506 47.36V49.36C61.5281 49.36 64.0475 48.93 66.5043 48.0721L65.8449 46.1839ZM58.9506 47.36C56.5137 47.36 54.9167 46.7759 53.9457 45.8049L52.5315 47.2191C54.0246 48.7122 56.2355 49.36 58.9506 49.36V47.36ZM53.9348 45.7941C52.9064 44.7969 52.3906 43.5668 52.3906 42.032H50.3906C50.3906 44.0812 51.1068 45.8378 52.5425 47.2299L53.9348 45.7941ZM52.3906 42.032C52.3906 40.8021 52.7298 39.483 53.4567 38.0639L51.6766 37.1521C50.8355 38.7943 50.3906 40.4246 50.3906 42.032H52.3906ZM53.4567 38.0639C54.1884 36.6352 55.1877 35.2811 56.4657 34.0031L55.0515 32.5889C53.6415 33.9989 52.5128 35.5195 51.6766 37.1521L53.4567 38.0639ZM56.456 34.0127C57.7648 32.7392 59.3123 31.6164 61.1058 30.6479L60.1555 28.8881C58.2157 29.9356 56.5151 31.1648 55.0613 32.5793L56.456 34.0127ZM61.0985 30.6518C62.9073 29.6942 64.8816 29.0169 67.027 28.6236L66.6663 26.6564C64.3317 27.0844 62.162 27.8258 60.1627 28.8842L61.0985 30.6518ZM66.8466 28.64C66.8331 28.64 66.6379 28.6417 66.4319 28.4769C66.1833 28.278 66.1266 28.01 66.1266 27.864H68.1266C68.1266 27.5686 68.0233 27.1887 67.6813 26.9151C67.382 26.6757 67.0468 26.64 66.8466 26.64V28.64ZM66.1266 27.864C66.1266 27.7109 66.1814 27.5482 66.2884 27.4198C66.3807 27.3091 66.4699 27.2736 66.4752 27.2715L67.218 29.1285C67.41 29.0517 67.6393 28.9229 67.8248 28.7002C68.0252 28.4598 68.1266 28.1664 68.1266 27.864H66.1266ZM66.6612 27.2173C64.594 27.6074 62.6886 28.2537 60.9514 29.1618L61.8779 30.9342C63.426 30.125 65.1419 29.5393 67.032 29.1827L66.6612 27.2173ZM60.9674 29.1536C59.2486 30.013 57.7478 31.0369 56.4747 32.2305L57.8426 33.6895C58.9587 32.6431 60.2953 31.7257 61.8618 30.9424L60.9674 29.1536ZM56.4747 32.2305C55.206 33.4199 54.1993 34.7232 53.4693 36.1427L55.2479 37.0573C55.8619 35.8635 56.7219 34.7401 57.8426 33.6895L56.4747 32.2305ZM53.4693 36.1427C52.7315 37.5773 52.3506 39.0584 52.3506 40.576H54.3506C54.3506 39.4056 54.6418 38.236 55.2479 37.0573L53.4693 36.1427ZM52.3506 40.576C52.3506 42.6569 52.9828 44.4224 54.3235 45.7631L55.7377 44.3489C54.8385 43.4496 54.3506 42.2284 54.3506 40.576H52.3506ZM54.3235 45.7631C55.7603 47.1999 58.0309 47.792 60.8546 47.792V45.792C58.2276 45.792 56.6157 45.2268 55.7377 44.3489L54.3235 45.7631ZM60.8546 47.792C63.1608 47.792 65.3772 47.4399 67.4989 46.7327L66.8664 44.8353C64.9561 45.4721 62.9538 45.792 60.8546 45.792V47.792ZM67.4937 46.7344C69.669 46.0225 71.7146 44.8984 73.6294 43.3744L72.3839 41.8096C70.64 43.1976 68.8029 44.2015 66.8716 44.8336L67.4937 46.7344ZM73.6294 43.3744C75.5488 41.8467 77.3304 39.8849 78.9803 37.5059L77.3369 36.3661C75.7762 38.6164 74.1231 40.4253 72.3839 41.8096L73.6294 43.3744ZM78.9741 37.5147C80.6661 35.1306 82.2291 32.2662 83.6687 28.9324L81.8326 28.1396C80.4348 31.3765 78.9365 34.1121 77.3431 36.3573L78.9741 37.5147ZM82.7883 27.5367C81.0424 27.4708 79.695 26.8734 78.6622 25.778L77.207 27.15C78.6383 28.668 80.5015 29.4518 82.7129 29.5353L82.7883 27.5367ZM78.682 25.7996C77.6873 24.6806 77.1426 23.1456 77.1426 21.088H75.1426C75.1426 23.5104 75.7926 25.5594 77.1872 27.1284L78.682 25.7996ZM77.1426 21.088C77.1426 18.9407 77.6609 16.7948 78.72 14.6413L76.9253 13.7587C75.7444 16.1599 75.1426 18.606 75.1426 21.088H77.1426ZM78.72 14.6413C79.7865 12.4726 81.228 10.5131 83.0515 8.7611L81.6658 7.31889C79.6813 9.22557 78.0987 11.3727 76.9253 13.7587L78.72 14.6413ZM83.0444 8.76779C84.8973 7.02178 87.0576 5.60949 89.5334 4.53307L88.7359 2.69893C86.0597 3.86251 83.7026 5.39955 81.6728 7.31221L83.0444 8.76779ZM89.5285 4.53514C92.0144 3.4698 94.6427 2.936 97.4226 2.936V0.935997C94.3786 0.935997 91.4816 1.5222 88.7407 2.69685L89.5285 4.53514ZM87.8081 16.3492C88.616 13.1544 89.5755 10.6606 90.6656 8.83206L88.9477 7.80793C87.7231 9.86204 86.7039 12.5576 85.8691 15.8588L87.8081 16.3492ZM90.6656 8.83206C91.7597 6.9968 92.9934 5.71749 94.3438 4.92701L93.3334 3.20099C91.6225 4.20251 90.1682 5.76053 88.9477 7.80793L90.6656 8.83206ZM93.7093 3.0724C91.0247 3.42256 88.5735 4.18416 86.3664 5.36652L87.3108 7.12948C89.2851 6.07184 91.5005 5.37744 93.968 5.0556L93.7093 3.0724ZM86.3664 5.36652C84.1866 6.53429 82.3047 7.96257 80.7304 9.65489L82.1948 11.0171C83.6072 9.49876 85.3093 8.20171 87.3108 7.12948L86.3664 5.36652ZM80.7298 9.65555C79.2017 11.3012 77.9997 13.1115 77.1313 15.0853L78.9619 15.8907C79.7362 14.1311 80.8116 12.5068 82.1954 11.0164L80.7298 9.65555ZM77.1275 15.0941C76.2973 17.0312 75.8706 18.9569 75.8706 20.864H77.8706C77.8706 19.2618 78.228 17.6034 78.9658 15.8819L77.1275 15.0941ZM75.8706 20.864C75.8706 23.1932 76.4549 25.1538 77.7435 26.6201L79.2458 25.2999C78.369 24.3022 77.8706 22.8655 77.8706 20.864H75.8706ZM77.7435 26.6201C79.0313 28.0856 80.7922 28.8494 82.9159 28.9743L83.0333 26.9777C81.349 26.8786 80.1232 26.2984 79.2458 25.2999L77.7435 26.6201ZM83.901 28.3526C85.302 24.9069 86.6026 20.9076 87.8054 16.3597L85.8719 15.8483C84.6853 20.3351 83.4099 24.2504 82.0483 27.5993L83.901 28.3526Z" fill="#E9EEF3" mask="url(#path-1-outside-1_2027_3417)"/>
</svg>
