<svg width="20" height="20" viewBox="0 0 20 20" fill="none" xmlns="http://www.w3.org/2000/svg">
<path fill-rule="evenodd" clip-rule="evenodd" d="M19.0312 0.968821C19.3383 1.27592 19.582 1.64052 19.7482 2.04179C19.9144 2.44306 20 2.87314 20 3.30748C20 3.74182 19.9144 4.17191 19.7482 4.57318C19.582 4.97445 19.3383 5.33905 19.0312 5.64614L17.3413 7.33606C17.6372 7.95176 17.7345 8.64419 17.6198 9.31761C17.5051 9.99104 17.1839 10.6122 16.7008 11.0951L15.9126 11.8822C15.4991 12.2955 14.9385 12.5277 14.3539 12.5277C13.7692 12.5277 13.2086 12.2955 12.7951 11.8822L5.6463 19.031C5.33915 19.3383 4.97447 19.582 4.5731 19.7482C4.17173 19.9145 3.74153 20.0001 3.30709 20H1.32283C0.971997 20 0.635529 19.8606 0.387449 19.6126C0.13937 19.3645 0 19.028 0 18.6772V16.6929C9.26881e-05 16.2584 0.0858143 15.8282 0.252266 15.4268C0.418717 15.0254 0.662635 14.6608 0.970078 14.3537L8.11779 7.20488C7.70447 6.79144 7.47228 6.23076 7.47228 5.64614C7.47228 5.06153 7.70447 4.50085 8.11779 4.0874L8.90488 3.30032C9.3877 2.817 10.0088 2.49565 10.6822 2.38071C11.3556 2.26578 12.0481 2.36293 12.6639 2.65874L14.3539 0.968821C14.661 0.661671 15.0256 0.418022 15.4268 0.251791C15.8281 0.0855589 16.2582 0 16.6925 0C17.1269 0 17.5569 0.0855589 17.9582 0.251791C18.3595 0.418022 18.7241 0.661671 19.0312 0.968821ZM9.67764 8.76362L2.52772 15.9135L2.43181 16.0227C2.28451 16.2151 2.2047 16.4506 2.20472 16.6929V17.7953H3.30709L3.4526 17.7854C3.69252 17.7534 3.91527 17.6434 4.08646 17.4723L11.2364 10.3235L9.67764 8.76362ZM17.4713 2.52756C17.2646 2.3209 16.9843 2.2048 16.692 2.2048C16.3997 2.2048 16.1193 2.3209 15.9126 2.52756L13.5822 4.85906C13.3734 5.06774 13.0903 5.18496 12.7951 5.18496C12.4999 5.18496 12.2168 5.06774 12.008 4.85906C11.8034 4.65442 11.5258 4.53945 11.2364 4.53945C10.947 4.53945 10.6694 4.65442 10.4647 4.85906L9.67764 5.64614L14.3539 10.3235L15.1409 9.53528C15.3456 9.33061 15.4605 9.05305 15.4605 8.76362C15.4605 8.4742 15.3456 8.19663 15.1409 7.99197C14.9323 7.78319 14.815 7.50008 14.815 7.20488C14.815 6.90969 14.9323 6.62658 15.1409 6.4178L17.4724 4.0874C17.5749 3.98502 17.6562 3.86345 17.7117 3.72962C17.7672 3.5958 17.7957 3.45235 17.7957 3.30748C17.7957 3.16262 17.7672 3.01917 17.7117 2.88534C17.6562 2.75152 17.5738 2.62994 17.4713 2.52756Z" fill="#333333"/>
</svg>
