<svg width="54" height="54" viewBox="0 0 54 54" fill="none" xmlns="http://www.w3.org/2000/svg">
<path d="M7.91075 46.089C5.33198 43.5983 3.27506 40.619 1.86001 37.3249C0.444969 34.0308 -0.299859 30.4879 -0.331012 26.9028C-0.362165 23.3178 0.320981 19.7624 1.67857 16.4442C3.03615 13.126 5.04098 10.1114 7.57609 7.57633C10.1112 5.04123 13.1258 3.03639 16.444 1.67881C19.7622 0.321225 23.3175 -0.361921 26.9026 -0.330768C30.4876 -0.299615 34.0306 0.445214 37.3247 1.86026C40.6188 3.2753 43.5981 5.33222 46.0888 7.91099C51.007 13.0033 53.7285 19.8235 53.667 26.9028C53.6054 33.9821 50.7659 40.7541 45.7599 45.7601C40.7538 50.7661 33.9819 53.6057 26.9026 53.6672C19.8233 53.7287 13.003 51.0073 7.91075 46.089ZM30.7797 27L38.4207 19.359L34.6138 15.552L26.9998 23.193L19.3588 15.552L15.5518 19.359L23.1928 27L15.5518 34.641L19.3588 38.448L26.9998 30.807L34.6408 38.448L38.4478 34.641L30.8067 27H30.7797Z" fill="#333333"/>
</svg>
