<svg width="28" height="20" viewBox="0 0 28 20" fill="none" xmlns="http://www.w3.org/2000/svg">
<path fill-rule="evenodd" clip-rule="evenodd" d="M26.9998 10.0001L27.8298 9.58411V9.58011L27.8238 9.57411L27.8118 9.55011L27.7698 9.47011L27.6098 9.18211C27.4145 8.84532 27.2071 8.51576 26.9878 8.19411C26.256 7.12001 25.4149 6.12469 24.4778 5.22411C22.2258 3.06411 18.7598 0.860107 13.9998 0.860107C9.24377 0.860107 5.77578 3.06211 3.52378 5.22411C2.5867 6.12469 1.74553 7.12001 1.01378 8.19411C0.716851 8.6322 0.441846 9.08476 0.189775 9.55011L0.177775 9.57411L0.173775 9.58011V9.58211C0.173775 9.58211 0.171775 9.58411 1.00178 10.0001L0.171775 9.58211C0.107604 9.71175 0.0742187 9.85445 0.0742188 9.99911C0.0742188 10.1438 0.107604 10.2865 0.171775 10.4161L0.169775 10.4201L0.175775 10.4261L0.187775 10.4501C0.250139 10.5751 0.316846 10.6978 0.387775 10.8181C1.24897 12.2729 2.30247 13.6049 3.51978 14.7781C5.77378 16.9381 9.23977 19.1381 13.9998 19.1381C18.7578 19.1381 22.2258 16.9381 24.4798 14.7761C25.4151 13.8745 26.2555 12.8792 26.9878 11.8061C27.2682 11.3932 27.5292 10.9674 27.7698 10.5301L27.8118 10.4501L27.8238 10.4261L27.8278 10.4201V10.4181C27.8278 10.4181 27.8298 10.4161 26.9998 10.0001ZM26.9998 10.0001L27.8298 10.4181C27.8939 10.2885 27.9273 10.1458 27.9273 10.0011C27.9273 9.85645 27.8939 9.71375 27.8298 9.58411L26.9998 10.0001ZM13.8798 6.92811C13.065 6.92811 12.2837 7.25176 11.7075 7.82788C11.1314 8.40399 10.8078 9.18536 10.8078 10.0001C10.8078 10.8149 11.1314 11.5962 11.7075 12.1723C12.2837 12.7485 13.065 13.0721 13.8798 13.0721C14.6945 13.0721 15.4759 12.7485 16.052 12.1723C16.6281 11.5962 16.9518 10.8149 16.9518 10.0001C16.9518 9.18536 16.6281 8.40399 16.052 7.82788C15.4759 7.25176 14.6945 6.92811 13.8798 6.92811ZM8.95578 10.0001C8.95578 8.69312 9.47497 7.43966 10.3992 6.51549C11.3233 5.59131 12.5768 5.07211 13.8838 5.07211C15.1908 5.07211 16.4442 5.59131 17.3684 6.51549C18.2926 7.43966 18.8118 8.69312 18.8118 10.0001C18.8118 11.3071 18.2926 12.5606 17.3684 13.4847C16.4442 14.4089 15.1908 14.9281 13.8838 14.9281C12.5768 14.9281 11.3233 14.4089 10.3992 13.4847C9.47497 12.5606 8.95578 11.3071 8.95578 10.0001Z" fill="#1E1E1E"/>
</svg>
