<svg width="24" height="25" viewBox="0 0 24 25" fill="none" xmlns="http://www.w3.org/2000/svg">
<path d="M12 5.375C12.6213 5.375 13.125 4.87132 13.125 4.25C13.125 3.62868 12.6213 3.125 12 3.125C11.3787 3.125 10.875 3.62868 10.875 4.25C10.875 4.87132 11.3787 5.375 12 5.375Z" stroke="#828282" stroke-width="2.25" stroke-linecap="round" stroke-linejoin="round"/>
<path d="M12 13.625C12.6213 13.625 13.125 13.1213 13.125 12.5C13.125 11.8787 12.6213 11.375 12 11.375C11.3787 11.375 10.875 11.8787 10.875 12.5C10.875 13.1213 11.3787 13.625 12 13.625Z" stroke="#828282" stroke-width="2.25" stroke-linecap="round" stroke-linejoin="round"/>
<path d="M12 21.875C12.6213 21.875 13.125 21.3713 13.125 20.75C13.125 20.1287 12.6213 19.625 12 19.625C11.3787 19.625 10.875 20.1287 10.875 20.75C10.875 21.3713 11.3787 21.875 12 21.875Z" stroke="#828282" stroke-width="2.25" stroke-linecap="round" stroke-linejoin="round"/>
</svg>
